<svg xmlns="http://www.w3.org/2000/svg">
    <symbol  id="zoomPlus">
           <path
                    d="M33.8267 34.2741L26.8501 27.2975M30.619 18.2359C30.619 25.322 24.8746 31.0664 17.7885 31.0664C10.7024 31.0664 4.95801 25.322 4.95801 18.2359C4.95801 11.1498 10.7024 5.4054 17.7885 5.4054C24.8746 5.4054 30.619 11.1498 30.619 18.2359Z"
                    stroke="#1E1E1E"
                    stroke-width="1.28305"
                    stroke-linecap="round"
                    stroke-linejoin="round"
                  />
                  <path
                    d="M18.189 12.7896V24.4841M12.3418 18.6369H24.0363"
                    stroke="#1E1E1E"
                    stroke-width="1.28305"
                    stroke-linecap="round"
                    stroke-linejoin="round"
                  />
    </symbol>
    <symbol id="phone">
           <path
                      d="M17.8122 22.6868C16.6852 22.6868 15.4983 22.4175 14.2714 21.8989C13.0746 21.3902 11.8677 20.692 10.6908 19.8442C9.52381 18.9865 8.39674 18.029 7.32952 16.9817C6.27227 15.9145 5.31477 14.7874 4.46697 13.6304C3.60921 12.4335 2.921 11.2367 2.43227 10.0797C1.91362 8.84289 1.6543 7.64601 1.6543 6.51894C1.6543 5.74096 1.79393 5.00289 2.06323 4.31468C2.34251 3.60652 2.79134 2.94824 3.39975 2.37972C4.16775 1.62169 5.04547 1.24268 5.98303 1.24268C6.37201 1.24268 6.77098 1.33244 7.11009 1.49203C7.49908 1.67156 7.82822 1.94086 8.0676 2.29992L10.3816 5.56143C10.591 5.85068 10.7506 6.12995 10.8603 6.40922C10.99 6.70845 11.0598 7.00767 11.0598 7.29691C11.0598 7.67593 10.9501 8.04497 10.7406 8.39406C10.591 8.66336 10.3616 8.9526 10.0724 9.24185L9.39415 9.95001C9.40412 9.97993 9.41409 9.99988 9.42407 10.0198C9.54376 10.2293 9.78313 10.5883 10.2419 11.1269C10.7307 11.6855 11.1895 12.1942 11.6483 12.6629C12.2367 13.2414 12.7255 13.7002 13.1843 14.0793C13.7528 14.558 14.1218 14.7974 14.3413 14.9071L14.3213 14.957L15.0494 14.2388C15.3586 13.9296 15.6578 13.7002 15.9471 13.5506C16.4957 13.2115 17.1938 13.1517 17.892 13.4409C18.1513 13.5506 18.4306 13.7002 18.7298 13.9097L22.0412 16.2636C22.4103 16.5129 22.6796 16.8321 22.8391 17.2111C22.9888 17.5901 23.0586 17.9392 23.0586 18.2883C23.0586 18.7671 22.9489 19.2458 22.7394 19.6946C22.5299 20.1435 22.2706 20.5325 21.9415 20.8915C21.373 21.5199 20.7546 21.9687 20.0364 22.258C19.3482 22.5372 18.6002 22.6868 17.8122 22.6868ZM5.98303 2.73878C5.43446 2.73878 4.92578 2.97816 4.43705 3.45691C3.97825 3.88579 3.65908 4.35457 3.4596 4.86325C3.25014 5.3819 3.1504 5.93047 3.1504 6.51894C3.1504 7.44652 3.36983 8.4539 3.80869 9.4912C4.25752 10.5484 4.88588 11.6456 5.68381 12.7427C6.48173 13.8399 7.38937 14.9071 8.38677 15.9145C9.38417 16.9019 10.4614 17.8195 11.5685 18.6274C12.6457 19.4154 13.7528 20.0537 14.8499 20.5125C16.5555 21.2406 18.1513 21.4102 19.4679 20.8616C19.9766 20.6521 20.4254 20.333 20.8344 19.8742C21.0638 19.6248 21.2433 19.3555 21.3929 19.0364C21.5126 18.787 21.5724 18.5277 21.5724 18.2684C21.5724 18.1088 21.5425 17.9492 21.4627 17.7696C21.4328 17.7098 21.373 17.6001 21.1835 17.4704L17.8721 15.1166C17.6726 14.9769 17.4931 14.8772 17.3235 14.8074C17.1041 14.7176 17.0143 14.6278 16.6752 14.8373C16.4757 14.937 16.2962 15.0866 16.0967 15.2861L15.3387 16.0342C14.9497 16.4132 14.3512 16.5029 13.8924 16.3334L13.6231 16.2137C13.2142 15.9943 12.7354 15.6552 12.2068 15.2063C11.7281 14.7974 11.2094 14.3186 10.5811 13.7002C10.0923 13.2015 9.6036 12.6729 9.09493 12.0844C8.62615 11.5359 8.28703 11.0671 8.07757 10.6781L7.95789 10.3789C7.89804 10.1495 7.87809 10.0198 7.87809 9.88019C7.87809 9.52112 8.00776 9.20195 8.25711 8.9526L9.00516 8.17463C9.20464 7.97515 9.35425 7.78564 9.45399 7.61608C9.53378 7.48642 9.56371 7.37671 9.56371 7.27697C9.56371 7.19717 9.53378 7.07749 9.48391 6.9578C9.41409 6.79821 9.30438 6.61868 9.16474 6.42917L6.85077 3.15769C6.75103 3.01805 6.63134 2.91831 6.48173 2.8485C6.32214 2.77868 6.15259 2.73878 5.98303 2.73878ZM14.3213 14.9669L14.1617 15.6452L14.431 14.947C14.3812 14.937 14.3413 14.947 14.3213 14.9669Z"
                      fill="#CBCBCB"
                    />
                    <path
                      d="M18.8591 9.72042C18.4501 9.72042 18.111 9.3813 18.111 8.97236C18.111 8.6133 17.752 7.86524 17.1535 7.22691C16.5651 6.59854 15.9167 6.2295 15.3682 6.2295C14.9592 6.2295 14.6201 5.89039 14.6201 5.48145C14.6201 5.07252 14.9592 4.7334 15.3682 4.7334C16.3357 4.7334 17.353 5.25205 18.2407 6.19958C19.0685 7.08727 19.6071 8.17444 19.6071 8.97236C19.6071 9.3813 19.268 9.72042 18.8591 9.72042Z"
                      fill="#CBCBCB"
                    />
                    <path
                      d="M22.35 9.7206C21.9411 9.7206 21.6019 9.38149 21.6019 8.97255C21.6019 5.53151 18.8092 2.73878 15.3682 2.73878C14.9592 2.73878 14.6201 2.39966 14.6201 1.99073C14.6201 1.58179 14.9592 1.24268 15.3682 1.24268C19.6271 1.24268 23.098 4.71364 23.098 8.97255C23.098 9.38149 22.7589 9.7206 22.35 9.7206Z"
                      fill="#CBCBCB"
                    />
    </symbol>
    <symbol id="email">
         <path
                      d="M12.3769 22.1116H7.38985C3.74933 22.1116 1.65479 20.0171 1.65479 16.3766V9.39474C1.65479 5.75421 3.74933 3.65967 7.38985 3.65967H17.3639C21.0044 3.65967 23.099 5.75421 23.099 9.39474V12.3869C23.099 12.7959 22.7598 13.135 22.3509 13.135C21.942 13.135 21.6029 12.7959 21.6029 12.3869V9.39474C21.6029 6.54216 20.2165 5.15577 17.3639 5.15577H7.38985C4.53728 5.15577 3.15089 6.54216 3.15089 9.39474V16.3766C3.15089 19.2291 4.53728 20.6155 7.38985 20.6155H12.3769C12.7858 20.6155 13.1249 20.9546 13.1249 21.3636C13.1249 21.7725 12.7858 22.1116 12.3769 22.1116Z"
                      fill="#CBCBCB"
                    />
                    <path
                      d="M12.3764 13.7535C11.5386 13.7535 10.6908 13.4941 10.0425 12.9655L6.92064 10.472C6.60148 10.2127 6.54164 9.7439 6.80096 9.42473C7.06029 9.10557 7.52905 9.0557 7.84822 9.30505L10.9701 11.7986C11.7281 12.407 13.0148 12.407 13.7728 11.7986L16.8947 9.30505C17.2138 9.04573 17.6826 9.09559 17.9419 9.42473C18.2013 9.7439 18.1514 10.2226 17.8223 10.472L14.7004 12.9655C14.062 13.4941 13.2143 13.7535 12.3764 13.7535Z"
                      fill="#CBCBCB"
                    />
                    <path
                      d="M16.1865 22.6408C15.8075 22.6408 15.4485 22.5012 15.1891 22.2418C14.8799 21.9327 14.7403 21.4838 14.8101 21.015L14.9996 19.6685C15.0495 19.3194 15.259 18.9005 15.5083 18.6512L19.0391 15.1204C19.5179 14.6416 19.9867 14.3923 20.4953 14.3424C21.1137 14.2826 21.7321 14.5419 22.3106 15.1204C22.8891 15.6989 23.1484 16.3073 23.0886 16.9357C23.0387 17.4344 22.7794 17.9131 22.3106 18.3919L18.7798 21.9227C18.5304 22.172 18.1115 22.3815 17.7624 22.4314L16.4159 22.6209C16.3361 22.6308 16.2663 22.6408 16.1865 22.6408ZM20.6649 15.8286C20.6549 15.8286 20.6449 15.8286 20.635 15.8286C20.4953 15.8385 20.3058 15.9682 20.0963 16.1776L16.5656 19.7084C16.5356 19.7384 16.4858 19.8381 16.4858 19.878L16.3062 21.1248L17.553 20.9452C17.5929 20.9352 17.6926 20.8854 17.7225 20.8554L21.2533 17.3247C21.4628 17.1052 21.5925 16.9257 21.6024 16.7861C21.6224 16.5866 21.4229 16.3472 21.2533 16.1776C21.0938 16.018 20.8644 15.8286 20.6649 15.8286Z"
                      fill="#CBCBCB"
                    />
                    <path
                      d="M21.2737 19.1192C21.2039 19.1192 21.1341 19.1092 21.0742 19.0892C19.7577 18.7202 18.7104 17.6729 18.3414 16.3564C18.2316 15.9574 18.461 15.5484 18.86 15.4288C19.259 15.319 19.6679 15.5485 19.7776 15.9474C20.007 16.7653 20.6553 17.4136 21.4732 17.643C21.8721 17.7527 22.1016 18.1716 21.9919 18.5706C21.9021 18.8997 21.6029 19.1192 21.2737 19.1192Z"
                      fill="#CBCBCB"
                    />
    </symbol>
    <symbol id="youtube">
      <path
                      fill-rule="evenodd"
                      clip-rule="evenodd"
                      d="M16.8279 16.1366V24.0124L23.3912 20.0745L16.8279 16.1366ZM13.6362 26.831C13.6362 28.0715 14.9895 28.8376 16.0531 28.1995L27.3139 21.443C28.3471 20.8232 28.3471 19.3259 27.3139 18.7061L16.0531 11.9496C14.9895 11.3114 13.6362 12.0776 13.6362 13.318V26.831Z"
                      fill="white"
                    />
                    <path
                      fill-rule="evenodd"
                      clip-rule="evenodd"
                      d="M32.7862 28.8958V11.2526C32.7862 9.98931 32.1043 9.20063 31.3559 8.97099C28.7848 8.18218 24.8426 7.30741 20.0195 7.30741C15.1964 7.30741 11.2542 8.18218 8.68308 8.97099C7.93458 9.20063 7.25273 9.98931 7.25273 11.2526V28.8958C7.25273 30.159 7.93458 30.9478 8.68308 31.1774C11.2542 31.9661 15.1964 32.8409 20.0195 32.8409C24.8426 32.8409 28.7848 31.9661 31.3559 31.1774C32.1043 30.9478 32.7862 30.159 32.7862 28.8958ZM7.74696 5.91967C5.43544 6.62883 4.06104 8.83472 4.06104 11.2526V28.8958C4.06104 31.3137 5.43544 33.5195 7.74696 34.2287C10.553 35.0895 14.8147 36.0326 20.0195 36.0326C25.2243 36.0326 29.486 35.0895 32.292 34.2287C34.6036 33.5195 35.9779 31.3137 35.9779 28.8958V11.2526C35.9779 8.83472 34.6036 6.62883 32.292 5.91967C29.486 5.05879 25.2243 4.11572 20.0195 4.11572C14.8147 4.11572 10.553 5.05879 7.74696 5.91967Z"
                      fill="white"
                    />
    </symbol>
    <symbol id="instagram">
        <path d="M35.041 13.659C34.9663 12.0021 34.6986 10.8685 34.3189 9.87812C33.9205 8.8566 33.3914 7.98457 32.5261 7.125C31.6608 6.26542 30.7955 5.72352 29.7746 5.33111C28.7848 4.94492 27.6519 4.68331 25.996 4.60857C24.3339 4.53382 23.8048 4.51514 19.5842 4.51514C15.3574 4.51514 14.8283 4.53382 13.1724 4.60857C11.5166 4.68331 10.3836 4.95115 9.39382 5.33111C8.36669 5.72975 7.49518 6.25919 6.63612 7.125C5.77707 7.9908 5.23549 8.8566 4.84331 9.87812C4.46358 10.8685 4.19591 12.0021 4.12121 13.659C4.04651 15.3221 4.02783 15.8515 4.02783 20.0746C4.02783 24.304 4.04651 24.8334 4.12121 26.4903C4.19591 28.1471 4.46358 29.2808 4.84331 30.2711C5.24172 31.2927 5.77084 32.1647 6.63612 33.0243C7.49518 33.8901 8.36669 34.4257 9.38759 34.8181C10.3774 35.2043 11.5103 35.4659 13.1662 35.5407C14.8283 35.6154 15.3574 35.6341 19.578 35.6341C23.8048 35.6341 24.3339 35.6154 25.9898 35.5407C27.6456 35.4659 28.7786 35.1981 29.7684 34.8181C30.7893 34.4195 31.6608 33.8901 32.5198 33.0243C33.3789 32.1585 33.9205 31.2927 34.3127 30.2711C34.6986 29.2808 34.9601 28.1471 35.0348 26.4903C35.1095 24.8272 35.1281 24.2977 35.1281 20.0746C35.1281 15.8515 35.1157 15.3158 35.041 13.659ZM32.2459 26.3657C32.1775 27.8855 31.9222 28.7139 31.7106 29.2558C31.4305 29.9784 31.0881 30.5016 30.5403 31.0497C29.9925 31.5979 29.4758 31.928 28.7475 32.2207C28.1997 32.4325 27.3717 32.6879 25.8591 32.7564C24.2219 32.8312 23.7301 32.8499 19.5718 32.8499C15.4134 32.8499 14.9217 32.8312 13.2845 32.7564C11.7656 32.6879 10.9376 32.4325 10.396 32.2207C9.67394 31.9405 9.15104 31.5979 8.60324 31.0497C8.05543 30.5016 7.72551 29.9846 7.43293 29.2558C7.22128 28.7077 6.96605 27.8793 6.89758 26.3657C6.82288 24.7275 6.8042 24.2355 6.8042 20.0746C6.8042 15.9138 6.82288 15.4217 6.89758 13.7836C6.96605 12.2637 7.22128 11.4353 7.43293 10.8934C7.71306 10.1709 8.05543 9.64765 8.60324 9.09952C9.15104 8.55139 9.66772 8.22126 10.396 7.92851C10.9439 7.71673 11.7718 7.46135 13.2845 7.39283C14.9217 7.31809 15.4134 7.2994 19.5718 7.2994C23.7301 7.2994 24.2219 7.31809 25.8591 7.39283C27.378 7.46135 28.2059 7.71673 28.7475 7.92851C29.4696 8.2088 29.9925 8.55139 30.5403 9.09952C31.0881 9.64765 31.418 10.1646 31.7106 10.8934C31.9222 11.4415 32.1775 12.27 32.2459 13.7836C32.3206 15.4217 32.3393 15.9138 32.3393 20.0746C32.3393 24.2355 32.3144 24.7275 32.2459 26.3657Z" fill="white"/>
        <path d="M19.5716 12.0767C15.1518 12.0767 11.5786 15.6582 11.5786 20.0744C11.5786 24.4968 15.158 28.0722 19.5716 28.0722C23.9851 28.0722 27.5645 24.4844 27.5645 20.0744C27.5645 15.652 23.9913 12.0767 19.5716 12.0767ZM19.5716 25.263C16.708 25.263 14.3861 22.9397 14.3861 20.0744C14.3861 17.2092 16.708 14.8858 19.5716 14.8858C22.4351 14.8858 24.757 17.2092 24.757 20.0744C24.757 22.9397 22.4351 25.263 19.5716 25.263Z" fill="white"/>
         <path d="M27.8763 13.6342C28.9077 13.6342 29.7438 12.7976 29.7438 11.7656C29.7438 10.7336 28.9077 9.89697 27.8763 9.89697C26.8449 9.89697 26.0088 10.7336 26.0088 11.7656C26.0088 12.7976 26.8449 13.6342 27.8763 13.6342Z" fill="white"/>
        <path d="M4.00928 20.0746C4.00928 24.304 4.02795 24.8334 4.10265 26.4903C4.17735 28.1471 4.44503 29.2808 4.82476 30.2711C5.22316 31.2927 5.75229 32.1647 6.61757 33.0243C7.47663 33.8838 8.34813 34.4257 9.36904 34.8181C10.3588 35.2043 11.4918 35.4659 13.1476 35.5407C14.8097 35.6154 15.3389 35.6341 19.5594 35.6341C23.7862 35.6341 24.3154 35.6154 25.9712 35.5407C27.6271 35.4659 28.76 35.1981 29.7498 34.8181C30.7707 34.4195 31.6422 33.8901 32.5013 33.0243C33.3603 32.1647 33.9019 31.2927 34.2941 30.2711C34.6801 29.2808 34.9415 28.1471 35.0162 26.4903C35.0909 24.8272 35.1096 24.2977 35.1096 20.0746C35.1096 15.8453 35.0909 15.3158 35.0162 13.659C34.9415 12.0021 34.6738 10.8685 34.2941 9.87812C33.8957 8.8566 33.3666 7.98457 32.5013 7.125C31.6485 6.25919 30.777 5.72352 29.756 5.33111C28.7663 4.94492 27.6333 4.68331 25.9774 4.60857C24.3154 4.53382 23.7862 4.51514 19.5657 4.51514C15.3389 4.51514 14.8097 4.53382 13.1539 4.60857C11.498 4.68331 10.365 4.95115 9.37526 5.33111C8.35436 5.72975 7.48285 6.25919 6.62379 7.125C5.76474 7.9908 5.22316 8.8566 4.83098 9.87812C4.44503 10.8685 4.17735 12.0021 4.10265 13.659C4.02795 15.3158 4.00928 15.8453 4.00928 20.0746ZM6.81677 20.0746C6.81677 15.92 6.83545 15.4217 6.91015 13.7836C6.97862 12.2637 7.23385 11.4353 7.4455 10.8934C7.72563 10.1709 8.068 9.64765 8.61581 9.09952C9.16361 8.55139 9.68029 8.22126 10.4086 7.92851C10.9564 7.71673 11.7844 7.46135 13.297 7.39283C14.9342 7.31809 15.426 7.2994 19.5843 7.2994C23.7427 7.2994 24.2344 7.31809 25.8716 7.39283C27.3905 7.46135 28.2185 7.71673 28.76 7.92851C29.4821 8.2088 30.005 8.55139 30.5529 9.09952C31.1007 9.64765 31.4306 10.1646 31.7232 10.8934C31.9348 11.4415 32.19 12.27 32.2585 13.7836C32.3332 15.4217 32.3519 15.9138 32.3519 20.0746C32.3519 24.2355 32.3332 24.7275 32.2585 26.3657C32.19 27.8855 31.9348 28.7139 31.7232 29.2558C31.443 29.9784 31.1007 30.5016 30.5529 31.0497C30.005 31.5979 29.4884 31.928 28.76 32.2207C28.2122 32.4325 27.3843 32.6879 25.8716 32.7564C24.2344 32.8312 23.7427 32.8499 19.5843 32.8499C15.426 32.8499 14.9342 32.8312 13.297 32.7564C11.7781 32.6879 10.9502 32.4325 10.4086 32.2207C9.68652 31.9405 9.16361 31.5979 8.61581 31.0497C8.068 30.5016 7.73808 29.9846 7.4455 29.2558C7.23385 28.7077 6.97862 27.8793 6.91015 26.3657C6.82922 24.7275 6.81677 24.2292 6.81677 20.0746Z" fill="white"/>
    </symbol>
    <symbol id="twitter">
        <path fill-rule="evenodd" clip-rule="evenodd" d="M9.43387 7.10498L10.4685 9.03629C12.914 13.6012 16.4053 15.0016 18.5799 15.2774V14.4602C18.5799 10.5099 21.7823 7.30745 25.7326 7.30745C29.683 7.30745 32.8855 10.5099 32.8855 14.4602V16.8825C32.8855 27.461 25.3859 34.4368 16.7561 34.4368C12.9635 34.4368 10.2845 33.1995 8.53937 31.9069C7.67492 31.2665 7.05049 30.6211 6.63505 30.124C6.42708 29.8752 6.27043 29.6623 6.16127 29.5037C6.10665 29.4246 6.06378 29.3586 6.0322 29.3085C6.01642 29.2835 6.00343 29.2623 5.9932 29.2453L5.97989 29.223L5.97477 29.2144L5.97258 29.2106L5.97159 29.2088C5.97159 29.2088 5.97065 29.2072 7.35196 28.408L5.97065 29.2072L4.58496 26.8122H7.35196C9.11373 26.8122 10.1508 26.8055 11.1702 26.5383C12.1422 26.2835 13.2037 25.7568 14.8179 24.5014L16.7774 27.0207C14.9719 28.4249 13.5204 29.2217 11.9794 29.6256C11.6973 29.6995 11.4158 29.759 11.1336 29.8069C12.3939 30.567 14.2205 31.2451 16.7561 31.2451C23.5147 31.2451 29.6938 25.8087 29.6938 16.8825V14.4602C29.6938 12.2726 27.9204 10.4991 25.7326 10.4991C23.5451 10.4991 21.7716 12.2726 21.7716 14.4602V18.2849L20.3808 18.4651C17.8405 18.7945 12.824 17.839 9.09694 12.8254C8.96093 13.3352 8.92729 13.8625 8.99773 14.3872C9.16327 15.62 9.93179 17.0215 11.6792 18.2295L9.86411 20.8549C7.50788 19.226 6.13911 17.0812 5.83443 14.8119C5.53021 12.5461 6.31522 10.3391 7.91303 8.68214L9.43387 7.10498Z" fill="white"/>
        <path fill-rule="evenodd" clip-rule="evenodd" d="M9.68369 21.479C10.6063 21.3466 11.4331 20.8503 11.8206 20.5688L13.6966 23.1508C13.1167 23.5721 11.7945 24.4004 10.1372 24.6383C8.36881 24.8922 6.30092 24.4503 4.5625 22.4381L6.97773 20.3516C7.92961 21.4533 8.87227 21.5955 9.68369 21.479Z" fill="white"/>
        <path fill-rule="evenodd" clip-rule="evenodd" d="M32.5444 9.67491C32.731 9.44841 32.8662 9.09517 32.8639 8.49228L36.0556 8.48047C36.0596 9.55206 35.8177 10.7209 35.0083 11.7038C34.1963 12.69 32.9916 13.2723 31.5062 13.5272L30.9663 10.3815C31.9505 10.2126 32.3608 9.89812 32.5444 9.67491Z" fill="white"/>
    </symbol>
    <symbol id="facebook">
           <path
                      fill-rule="evenodd"
                      clip-rule="evenodd"
                      d="M29.2435 7.3079H10.0933C8.33062 7.3079 6.90165 8.73687 6.90165 10.4996V29.6497C6.90165 31.4125 8.33062 32.8414 10.0933 32.8414H29.2435C31.0063 32.8414 32.4352 31.4125 32.4352 29.6497V10.4996C32.4352 8.73687 31.0063 7.3079 29.2435 7.3079ZM10.0933 4.11621C6.5679 4.11621 3.70996 6.97415 3.70996 10.4996V29.6497C3.70996 33.1751 6.5679 36.0331 10.0933 36.0331H29.2435C32.7689 36.0331 35.6269 33.1751 35.6269 29.6497V10.4996C35.6269 6.97415 32.7689 4.11621 29.2435 4.11621H10.0933Z"
                      fill="white"
                    />
                    <path
                      fill-rule="evenodd"
                      clip-rule="evenodd"
                      d="M19.5353 16.8832C19.5353 14.2392 21.6787 12.0957 24.3229 12.0957H27.6475V15.2874H24.3229C23.4415 15.2874 22.727 16.0019 22.727 16.8832V20.0749H27.6475V23.2666H22.727V32.8417H19.5353V23.2666H16.4766V20.0749H19.5353V16.8832Z"
                      fill="white"
                    />
    </symbol>
    <symbol id="arrow-right" viewBox="0 0 24 24">
	      <path
                    fill="currentColor"
                    d="m4.296 12l8.492-8.727a.75.75 0 1 0-1.075-1.046l-9 9.25a.75.75 0 0 0 0 1.046l9 9.25a.75.75 0 1 0 1.075-1.046z"
                  />
    </symbol>
        <symbol id="lucide--home" viewBox="0 0 24 24">
          <g fill="none" stroke="currentColor" stroke-linecap="round" stroke-linejoin="round" stroke-width="1.4">
            <path d="M15 21v-8a1 1 0 0 0-1-1h-4a1 1 0 0 0-1 1v8" />
            <path d="M3 10a2 2 0 0 1 .709-1.528l7-5.999a2 2 0 0 1 2.582 0l7 5.999A2 2 0 0 1 21 10v9a2 2 0 0 1-2 2H5a2 2 0 0 1-2-2z" />
          </g>
    </symbol>
    <symbol id="mi--shopping-cart" viewBox="0 0 24 24">
      <path fill="currentColor" d="M4.142 4L6.01 16.136A1 1 0 0 0 7.016 17H18a1 1 0 0 0 .958-.713l3-10A1 1 0 0 0 21 5H6.32l-.33-2.138a1 1 0 0 0-.346-.627A1 1 0 0 0 4.984 2H3a1 1 0 1 0 0 2zm3.716 11l-1.23-8h13.028l-2.4 8zM10 20a2 2 0 1 1-4 0a2 2 0 0 1 4 0m9 0a2 2 0 1 1-4 0a2 2 0 0 1 4 0" />
    </symbol>
      <symbol id="ic--round-menu" viewBox="0 0 24 24">
        <path fill="currentColor" d="M4 18h16c.55 0 1-.45 1-1s-.45-1-1-1H4c-.55 0-1 .45-1 1s.45 1 1 1m0-5h16c.55 0 1-.45 1-1s-.45-1-1-1H4c-.55 0-1 .45-1 1s.45 1 1 1M3 7c0 .55.45 1 1 1h16c.55 0 1-.45 1-1s-.45-1-1-1H4c-.55 0-1 .45-1 1" />
     </symbol>
       <symbol id="iconoir--search" viewBox="0 0 24 24">
    	  <path fill="none" stroke="currentColor" stroke-linecap="round" stroke-linejoin="round" stroke-width="1.5" d="m17 17l4 4M3 11a8 8 0 1 0 16 0a8 8 0 0 0-16 0" />
      </symbol>
      <symbol id="lsicon--user-outline" viewBox="0 0 16 16">
      	<path fill="none" stroke="currentColor" d="M3.5 14v-.5a4 4 0 0 1 4-4h1a4 4 0 0 1 4 4v.5m-2-9a2.5 2.5 0 1 1-5 0a2.5 2.5 0 0 1 5 0Z" />
      </symbol>
      <symbol id="heroicons-solid--arrow-left" viewBox="0 0 20 20">
        <path fill="currentColor" fill-rule="evenodd" d="M9.707 16.707a1 1 0 0 1-1.414 0l-6-6a1 1 0 0 1 0-1.414l6-6a1 1 0 0 1 1.414 1.414L5.414 9H17a1 1 0 1 1 0 2H5.414l4.293 4.293a1 1 0 0 1 0 1.414" clip-rule="evenodd" />
      </symbol>

    <symbol id="plus">
        <path
                            d="M15.0552 6.35742V23.0811M6.69336 14.7192H23.417"
                            stroke="black"
                            stroke-width="1.91127"
                            stroke-linecap="round"
                            stroke-linejoin="round"
                          />
    </symbol>
    <symbol id="bookmark">
      <path
                            d="M16.0622 22.6112L10.4876 17.4349L4.91309 22.6112V6.04686C4.91309 5.49772 5.08089 4.97107 5.37958 4.58277C5.67828 4.19446 6.0834 3.97632 6.50581 3.97632H14.4694C14.8919 3.97632 15.297 4.19446 15.5957 4.58277C15.8944 4.97107 16.0622 5.49772 16.0622 6.04686V22.6112Z"
                            stroke="#1E1E1E"
                            stroke-width="0.955636"
                            stroke-linecap="round"
                            stroke-linejoin="round"
                          />
    </symbol>

    <symbol id="iconoir--arrow-right" viewBox="0 0 24 24">
      <path d="M16.6536 3.74876C16.8519 3.74876 17.0501 3.8218 17.2066 3.97832C17.5092 4.28091 17.5092 4.78176 17.2066 5.08436L10.4034 11.8876C9.90259 12.3884 9.90259 13.2023 10.4034 13.7032L17.2066 20.5064C17.5092 20.809 17.5092 21.3098 17.2066 21.6124C16.904 21.915 16.4032 21.915 16.1006 21.6124L9.29739 14.8092C8.76524 14.277 8.46264 13.5571 8.46264 12.7954C8.46264 12.0337 8.7548 11.3137 9.29739 10.7815L16.1006 3.97832C16.2571 3.83224 16.4554 3.74876 16.6536 3.74876Z" fill="#F9F9F9"/>
    </symbol>

   <symbol id="si--star-fill" viewBox="0 0 24 24">
	  <path fill="currentColor" d="M12.954 1.7a1 1 0 0 0-1.908-.001l-2.184 6.92l-6.861-.005a1 1 0 0 0-.566 1.826l5.498 3.762l-2.067 6.545A1 1 0 0 0 6.4 21.86l5.6-4.006l5.594 4.007a1 1 0 0 0 1.536-1.114l-2.067-6.545l5.502-3.762a1 1 0 0 0-.566-1.826l-6.866.005z" />
</symbol>

<symbol id="mdi--add-bold" viewBox="0 0 24 24">
	<path fill="currentColor" d="M20 14h-6v6h-4v-6H4v-4h6V4h4v6h6z" />
</symbol>
<symbol id="material-symbols--remove" viewBox="0 0 24 24">
	<path fill="currentColor" d="M5 13v-2h14v2z" />
</symbol>

<symbol id="solar--bag-4-linear" viewBox="0 0 24 24">
	<g fill="none">
		<path stroke="currentColor" stroke-width="1.5" d="M3.794 12.03C4.331 9.342 4.6 8 5.487 7.134a4 4 0 0 1 .53-.434C7.04 6 8.41 6 11.15 6h1.703c2.739 0 4.108 0 5.13.7q.285.196.53.435C19.4 8 19.67 9.343 20.207 12.03c.771 3.856 1.157 5.784.269 7.15q-.241.373-.56.683C18.75 21 16.785 21 12.853 21H11.15c-3.933 0-5.899 0-7.065-1.138a4 4 0 0 1-.559-.683c-.888-1.366-.502-3.294.27-7.15Z" />
		<circle cx="15" cy="9" r="1" fill="currentColor" />
		<circle cx="9" cy="9" r="1" fill="currentColor" />
		<path stroke="currentColor" stroke-linecap="round" stroke-width="1.5" d="M9 6V5a3 3 0 1 1 6 0v1" />
	</g>
</symbol>
<symbol id="pen--add">
    <path
                d="M12.6671 9.47997C12.5405 9.47997 12.4071 9.42666 12.3138 9.33333L8.53381 5.55334C8.36714 5.38667 8.34047 5.13334 8.46714 4.93334L9.64714 3.06664C9.96714 2.55331 10.4671 2.24 11.0405 2.17333C11.6738 2.1 12.3471 2.36 12.8671 2.88L14.9871 4.99999C15.4871 5.49999 15.7338 6.16666 15.6605 6.83333C15.5938 7.41333 15.2871 7.9133 14.8071 8.21996L12.9405 9.39998C12.8538 9.45331 12.7605 9.47997 12.6671 9.47997ZM9.52714 5.13333L12.7405 8.34667L14.2671 7.38C14.4938 7.24 14.6338 7.00668 14.6605 6.72668C14.7005 6.37334 14.5538 5.99333 14.2738 5.71333L12.1538 3.59334C11.8471 3.28667 11.4805 3.13333 11.1471 3.17333C10.8805 3.2 10.6538 3.35331 10.4938 3.60664L9.52714 5.13333Z"
                fill="currentColor"
              />
              <path
                d="M4.92005 15.1667C4.29339 15.1667 3.74005 14.9467 3.32672 14.5334C2.84672 14.0534 2.63338 13.38 2.72005 12.6333L3.37338 7.11334C3.40672 6.84 3.65338 6.64669 3.92672 6.67335C4.20005 6.70669 4.40005 6.95337 4.36672 7.2267L3.71339 12.7467C3.66005 13.18 3.77339 13.56 4.03339 13.82C4.29339 14.08 4.68005 14.2 5.12005 14.1467L10.9334 13.46C12.1734 13.3133 12.4467 12.98 12.3267 11.7667L12.1667 9.00002C12.1534 8.72668 12.3601 8.48666 12.6401 8.47332C12.9134 8.45999 13.1534 8.66671 13.1667 8.94671L13.3267 11.6934C13.5001 13.4134 12.8201 14.2466 11.0534 14.46L5.24005 15.1467C5.13338 15.16 5.02672 15.1667 4.92005 15.1667Z"
                fill="currentColor"
              />
              <path
                d="M8.88672 5.70666C8.87338 5.70666 8.86671 5.70666 8.85338 5.70666L7.68671 5.63334C7.41338 5.61334 7.20005 5.38002 7.22005 5.10002C7.24005 4.82002 7.47339 4.61334 7.75338 4.63334L8.92005 4.70666C9.19338 4.72666 9.40672 4.95999 9.38672 5.23999C9.36672 5.49999 9.14672 5.70666 8.88672 5.70666Z"
                fill="currentColor"
              />
              <path
                d="M4.01982 14.3533C3.89315 14.3533 3.76648 14.3067 3.66648 14.2067C3.47315 14.0133 3.47315 13.6933 3.66648 13.5L5.78648 11.3799C5.97981 11.1866 6.29982 11.1866 6.49315 11.3799C6.68649 11.5733 6.68649 11.8933 6.49315 12.0866L4.37315 14.2067C4.27315 14.3067 4.14648 14.3533 4.01982 14.3533Z"
                fill="currentColor"
              />
              <path
                d="M4.83301 7.83333C4.43967 7.83333 4.05967 7.76664 3.70634 7.64664C2.93301 7.38664 2.26634 6.85334 1.83967 6.14001C1.50634 5.59334 1.33301 4.96666 1.33301 4.33333C1.33301 3.25333 1.813 2.26001 2.65301 1.60001C3.26634 1.10668 4.03967 0.833328 4.83301 0.833328C6.76634 0.833328 8.33301 2.40666 8.33301 4.33333C8.33301 4.64666 8.28634 4.97331 8.19968 5.27331C8.11301 5.57998 7.99301 5.86001 7.82635 6.14001C7.63301 6.46001 7.39968 6.73334 7.12634 6.96667C6.49968 7.52667 5.68634 7.83333 4.83301 7.83333ZM4.83301 1.83333C4.26634 1.83333 3.71301 2.02667 3.27301 2.38C2.67301 2.85333 2.33301 3.56 2.33301 4.33333C2.33301 4.78 2.45967 5.22666 2.693 5.61999C2.99967 6.12666 3.473 6.51331 4.02634 6.69331C4.833 6.97998 5.79968 6.79999 6.47301 6.20666C6.66635 6.03999 6.83301 5.83999 6.97301 5.61999C7.09301 5.41999 7.17968 5.22 7.23968 5C7.29968 4.78 7.33301 4.55333 7.33301 4.33333C7.33301 2.95333 6.21301 1.83333 4.83301 1.83333Z"
                fill="currentColor"
              />
              <path
                d="M4.84668 5.95337C4.57335 5.95337 4.34668 5.7267 4.34668 5.45337V3.21338C4.34668 2.94005 4.57335 2.71338 4.84668 2.71338C5.12001 2.71338 5.34668 2.94005 5.34668 3.21338V5.45337C5.34668 5.73337 5.12001 5.95337 4.84668 5.95337Z"
                fill="currentColor"
              />
              <path
                d="M5.9402 4.83333H3.7002C3.42686 4.83333 3.2002 4.60666 3.2002 4.33333C3.2002 4.05999 3.42686 3.83333 3.7002 3.83333H5.9402C6.21353 3.83333 6.4402 4.05999 6.4402 4.33333C6.4402 4.60666 6.2202 4.83333 5.9402 4.83333Z"
                fill="currentColor"
              />
</symbol>

<symbol id="hugeicons--credit-card-pos" viewBox="0 0 24 24">
	<path fill="none" stroke="currentColor" stroke-linecap="round" stroke-linejoin="round" stroke-width="1.1" d="m3.346 16.198l12.829-12.83m2.457 7.688l-2.2 2.2m-1.877 1.854l-.979.979m-10.401.052a4.01 4.01 0 0 1 0-5.672l7.294-7.294a4.01 4.01 0 0 1 5.672 0l4.684 4.684a4.01 4.01 0 0 1 0 5.672l-7.294 7.294a4.01 4.01 0 0 1-5.672 0zM4 22h16" color="currentColor" />
</symbol>

  <symbol id="trash" viewBox="0 0 24 24">
         <path
                              d="M20.9997 6.72998C20.9797 6.72998 20.9497 6.72998 20.9197 6.72998C15.6297 6.19998 10.3497 5.99998 5.11967 6.52998L3.07967 6.72998C2.65967 6.76998 2.28967 6.46998 2.24967 6.04998C2.20967 5.62998 2.50967 5.26998 2.91967 5.22998L4.95967 5.02998C10.2797 4.48998 15.6697 4.69998 21.0697 5.22998C21.4797 5.26998 21.7797 5.63998 21.7397 6.04998C21.7097 6.43998 21.3797 6.72998 20.9997 6.72998Z"
                              fill="currentColor"
                            />
                            <path
                              d="M8.49977 5.72C8.45977 5.72 8.41977 5.72 8.36977 5.71C7.96977 5.64 7.68977 5.25 7.75977 4.85L7.97977 3.54C8.13977 2.58 8.35977 1.25 10.6898 1.25H13.3098C15.6498 1.25 15.8698 2.63 16.0198 3.55L16.2398 4.85C16.3098 5.26 16.0298 5.65 15.6298 5.71C15.2198 5.78 14.8298 5.5 14.7698 5.1L14.5498 3.8C14.4098 2.93 14.3798 2.76 13.3198 2.76H10.6998C9.63977 2.76 9.61977 2.9 9.46977 3.79L9.23977 5.09C9.17977 5.46 8.85977 5.72 8.49977 5.72Z"
                              fill="currentColor"
                            />
                            <path
                              d="M15.2104 22.7501H8.79039C5.30039 22.7501 5.16039 20.8201 5.05039 19.2601L4.40039 9.19007C4.37039 8.78007 4.69039 8.42008 5.10039 8.39008C5.52039 8.37008 5.87039 8.68008 5.90039 9.09008L6.55039 19.1601C6.66039 20.6801 6.70039 21.2501 8.79039 21.2501H15.2104C17.3104 21.2501 17.3504 20.6801 17.4504 19.1601L18.1004 9.09008C18.1304 8.68008 18.4904 8.37008 18.9004 8.39008C19.3104 8.42008 19.6304 8.77007 19.6004 9.19007L18.9504 19.2601C18.8404 20.8201 18.7004 22.7501 15.2104 22.7501Z"
                              fill="currentColor"
                            />
                            <path
                              d="M13.6601 17.25H10.3301C9.92008 17.25 9.58008 16.91 9.58008 16.5C9.58008 16.09 9.92008 15.75 10.3301 15.75H13.6601C14.0701 15.75 14.4101 16.09 14.4101 16.5C14.4101 16.91 14.0701 17.25 13.6601 17.25Z"
                              fill="currentColor"
                            />
                            <path
                              d="M14.5 13.25H9.5C9.09 13.25 8.75 12.91 8.75 12.5C8.75 12.09 9.09 11.75 9.5 11.75H14.5C14.91 11.75 15.25 12.09 15.25 12.5C15.25 12.91 14.91 13.25 14.5 13.25Z"
                              fill="currentColor"
                            />
  </symbol>
  <symbol id="system-uicons--warning-hex" viewBox="0 0 21 21">
	<g fill="none" fill-rule="evenodd" transform="translate(-1 -1)">
		<path stroke="currentColor" stroke-linecap="round" stroke-linejoin="round" d="m14.517 3.5l4.983 5v6l-4.983 5H8.5l-5-5v-6l5-5zm-3.017 9v-5" />
		<circle cx="11.5" cy="15.5" r="1" fill="currentColor" />
	</g>
  </symbol>


<symbol id="gridicons--add-outline" viewBox="0 0 24 24">
	<path fill="currentColor" d="M12 4c4.411 0 8 3.589 8 8s-3.589 8-8 8s-8-3.589-8-8s3.589-8 8-8m0-2C6.477 2 2 6.477 2 12s4.477 10 10 10s10-4.477 10-10S17.523 2 12 2m5 9h-4V7h-2v4H7v2h4v4h2v-4h4z" />
</symbol>

<symbol id="simple-line-icons--check" viewBox="0 0 1024 1024">
	<path fill="currentColor" d="M512 0C229.232 0 0 229.232 0 512c0 282.784 229.232 512 512 512c282.784 0 512-229.216 512-512C1024 229.232 794.784 0 512 0m0 961.008c-247.024 0-448-201.984-448-449.01c0-247.024 200.976-448 448-448s448 200.977 448 448s-200.976 449.01-448 449.01m204.336-636.352L415.935 626.944l-135.28-135.28c-12.496-12.496-32.752-12.496-45.264 0c-12.496 12.496-12.496 32.752 0 45.248l158.384 158.4c12.496 12.48 32.752 12.48 45.264 0c1.44-1.44 2.673-3.009 3.793-4.64l318.784-320.753c12.48-12.496 12.48-32.752 0-45.263c-12.512-12.496-32.768-12.496-45.28 0" />
</symbol>

<symbol id="codicon--error" viewBox="0 0 16 16">
	<path fill="currentColor" fill-rule="evenodd" d="M8.6 1c1.6.1 3.1.9 4.2 2c1.3 1.4 2 3.1 2 5.1c0 1.6-.6 3.1-1.6 4.4c-1 1.2-2.4 2.1-4 2.4s-3.2.1-4.6-.7s-2.5-2-3.1-3.5S.8 7.5 1.3 6c.5-1.6 1.4-2.9 2.8-3.8C5.4 1.3 7 .9 8.6 1m.5 12.9c1.3-.3 2.5-1 3.4-2.1c.8-1.1 1.3-2.4 1.2-3.8c0-1.6-.6-3.2-1.7-4.3c-1-1-2.2-1.6-3.6-1.7c-1.3-.1-2.7.2-3.8 1S2.7 4.9 2.3 6.3c-.4 1.3-.4 2.7.2 4q.9 1.95 2.7 3c1.2.7 2.6.9 3.9.6M7.9 7.5L10.3 5l.7.7l-2.4 2.5l2.4 2.5l-.7.7l-2.4-2.5l-2.4 2.5l-.7-.7l2.4-2.5l-2.4-2.5l.7-.7z" clip-rule="evenodd" />
</symbol>

<symbol id="wi--time-4" viewBox="0 0 30 30">
	<path fill="currentColor" d="M3.74 14.47c0-2.04.51-3.93 1.52-5.66s2.38-3.1 4.11-4.11s3.61-1.51 5.64-1.51c1.52 0 2.98.3 4.37.89s2.58 1.4 3.59 2.4s1.81 2.2 2.4 3.6s.89 2.85.89 4.39c0 1.52-.3 2.98-.89 4.37s-1.4 2.59-2.4 3.59s-2.2 1.8-3.59 2.39s-2.84.89-4.37.89s-3-.3-4.39-.89s-2.59-1.4-3.6-2.4s-1.8-2.2-2.4-3.58s-.88-2.84-.88-4.37m2.48 0c0 2.37.86 4.43 2.59 6.18c1.73 1.73 3.79 2.59 6.2 2.59c1.58 0 3.05-.39 4.39-1.18s2.42-1.85 3.21-3.2s1.19-2.81 1.19-4.39s-.4-3.05-1.19-4.4s-1.86-2.42-3.21-3.21s-2.81-1.18-4.39-1.18s-3.05.39-4.39 1.18S8.2 8.72 7.4 10.07s-1.18 2.82-1.18 4.4m7.92 0V7.81c0-.23.08-.43.24-.59s.36-.24.59-.24s.43.08.59.24s.24.36.24.59v6.15l3.59 2.09c.2.12.32.29.38.51s.03.43-.09.62q-.24.42-.72.42q-.255 0-.42-.12l-3.82-2.23c-.17-.05-.31-.15-.42-.29s-.16-.3-.16-.49" />
</symbol>
<symbol id="line-md--arrow-right" viewBox="0 0 24 24">
	<g fill="none" stroke="currentColor" stroke-linecap="round" stroke-linejoin="round" stroke-width="2">
		<path d="M3 12h17.5" />
		<path d="M21 12l-7 7M21 12l-7 -7" />
	</g>
</symbol>

<symbol id="mynaui--location" viewBox="0 0 24 24">
	<g fill="none" stroke="currentColor" stroke-linecap="round" stroke-linejoin="round" stroke-width="1.1">
		<path d="M12.56 20.82a.96.96 0 0 1-1.12 0C6.611 17.378 1.486 10.298 6.667 5.182A7.6 7.6 0 0 1 12 3c2 0 3.919.785 5.333 2.181c5.181 5.116.056 12.196-4.773 15.64" />
		<path d="M12 12a2 2 0 1 0 0-4a2 2 0 0 0 0 4" />
	</g>
</symbol>


<symbol id="carbon--phone" viewBox="0 0 32 32">
	<path fill="currentColor" d="M26 29h-.17C6.18 27.87 3.39 11.29 3 6.23A3 3 0 0 1 5.76 3h5.51a2 2 0 0 1 1.86 1.26L14.65 8a2 2 0 0 1-.44 2.16l-2.13 2.15a9.37 9.37 0 0 0 7.58 7.6l2.17-2.15a2 2 0 0 1 2.17-.41l3.77 1.51A2 2 0 0 1 29 20.72V26a3 3 0 0 1-3 3M6 5a1 1 0 0 0-1 1v.08C5.46 12 8.41 26 25.94 27a1 1 0 0 0 1.06-.94v-5.34l-3.77-1.51l-2.87 2.85l-.48-.06c-8.7-1.09-9.88-9.79-9.88-9.88l-.06-.48l2.84-2.87L11.28 5Z" />
</symbol>

<symbol id="mynaui--edit" viewBox="0 0 24 24">
	<path fill="none" stroke="currentColor" stroke-linecap="round" stroke-linejoin="round" stroke-width="1.1" d="M4 21h16M5.666 13.187A2.28 2.28 0 0 0 5 14.797V18h3.223c.604 0 1.183-.24 1.61-.668l9.5-9.505a2.28 2.28 0 0 0 0-3.22l-.938-.94a2.277 2.277 0 0 0-3.222.001z" />
</symbol>
</svg>